<?xml version="1.0" standalone="no"?>
<!DOCTYPE svg PUBLIC "-//W3C//DTD SVG 20010904//EN"
 "http://www.w3.org/TR/2001/REC-SVG-20010904/DTD/svg10.dtd">
<svg version="1.0" xmlns="http://www.w3.org/2000/svg"
 width="2215.000000pt" height="2215.000000pt" viewBox="0 0 2215.000000 2215.000000"
 preserveAspectRatio="xMidYMid meet">
<metadata>
Created by potrace 1.14, written by Peter Selinger 2001-2017
</metadata>
<g transform="translate(0.000000,2215.000000) scale(0.100000,-0.100000)"
fill="#000000" stroke="none">
<path d="M10678 22145 c-2 -2 -75 -6 -163 -10 -88 -3 -176 -8 -195 -9 -19 -2
-75 -7 -125 -11 -49 -3 -106 -8 -125 -10 -19 -2 -66 -6 -104 -10 -38 -3 -83
-8 -100 -10 -17 -2 -53 -7 -81 -10 -71 -8 -136 -16 -165 -20 -14 -2 -63 -9
-110 -15 -89 -12 -252 -38 -405 -65 -122 -21 -117 -20 -235 -45 -58 -12 -116
-24 -130 -26 -14 -3 -41 -9 -60 -14 -19 -5 -47 -12 -62 -15 -16 -3 -40 -7 -54
-10 -19 -4 -444 -113 -499 -128 -17 -5 -126 -38 -260 -79 -71 -22 -134 -41
-140 -43 -5 -1 -17 -5 -25 -8 -8 -3 -69 -24 -135 -46 -125 -42 -279 -97 -305
-108 -8 -3 -17 -7 -20 -8 -30 -10 -366 -144 -405 -160 -16 -8 -61 -27 -98 -44
-38 -17 -75 -31 -83 -31 -8 0 -14 -4 -14 -10 0 -5 -6 -10 -13 -10 -8 0 -27 -6
-43 -14 -16 -8 -68 -33 -116 -55 -246 -113 -599 -295 -776 -400 -29 -17 -55
-31 -57 -31 -3 0 -29 -16 -59 -35 -30 -19 -57 -35 -60 -35 -8 0 -365 -222
-476 -297 -354 -235 -700 -493 -1005 -748 -132 -110 -180 -152 -328 -285 -265
-239 -661 -640 -888 -901 -152 -174 -335 -395 -414 -499 -27 -36 -52 -67 -55
-70 -3 -3 -17 -21 -30 -40 -13 -19 -29 -40 -36 -47 -10 -11 -141 -188 -174
-236 -8 -12 -40 -58 -70 -101 -30 -43 -60 -86 -65 -95 -6 -9 -58 -88 -116
-176 -146 -222 -392 -631 -442 -735 -4 -8 -21 -40 -38 -70 -17 -30 -56 -104
-87 -165 -31 -60 -61 -113 -66 -117 -6 -4 -8 -8 -4 -8 4 0 -21 -57 -56 -127
-35 -71 -73 -149 -84 -174 -236 -517 -403 -960 -566 -1499 -50 -164 -143 -514
-160 -602 -2 -13 -14 -63 -26 -113 -19 -83 -92 -443 -105 -525 -3 -19 -8 -48
-11 -65 -3 -16 -7 -43 -9 -58 -2 -16 -6 -40 -9 -55 -3 -15 -8 -47 -11 -72 -3
-25 -8 -52 -10 -60 -2 -8 -6 -42 -10 -75 -3 -33 -8 -67 -10 -75 -3 -8 -7 -40
-9 -70 -3 -30 -9 -86 -15 -125 -5 -38 -13 -110 -16 -160 -4 -49 -9 -92 -10
-95 -2 -4 -6 -53 -21 -265 -26 -378 -25 -1300 1 -1480 2 -16 7 -75 10 -131 3
-55 8 -114 10 -130 2 -16 6 -60 10 -99 12 -130 23 -234 30 -275 2 -14 7 -50
10 -80 4 -30 15 -116 27 -190 11 -74 22 -145 23 -157 2 -12 6 -34 9 -50 3 -15
8 -44 11 -63 3 -19 8 -48 12 -65 3 -16 7 -39 9 -50 5 -38 46 -240 64 -320 10
-45 21 -92 23 -105 29 -156 184 -719 275 -995 122 -370 293 -809 423 -1090 20
-44 48 -105 62 -135 286 -628 729 -1368 1170 -1955 107 -142 150 -198 157
-205 8 -8 53 -64 80 -100 34 -46 244 -297 305 -364 224 -250 290 -320 500
-530 210 -210 377 -368 510 -481 39 -33 75 -65 80 -71 15 -17 185 -158 325
-270 478 -383 1049 -765 1585 -1059 355 -195 821 -417 1155 -550 80 -31 159
-63 175 -70 17 -8 55 -23 85 -34 30 -11 98 -35 150 -55 270 -98 787 -259 970
-301 8 -1 92 -22 185 -45 94 -23 181 -44 195 -46 14 -3 57 -11 95 -20 39 -9
81 -18 95 -20 14 -3 32 -7 40 -9 8 -2 31 -7 50 -10 19 -3 69 -12 110 -20 41
-8 93 -17 115 -20 22 -4 47 -8 55 -10 8 -3 78 -14 155 -25 77 -12 151 -23 164
-25 14 -3 52 -7 85 -11 34 -3 63 -7 66 -9 3 -1 43 -6 90 -10 47 -4 87 -8 90
-10 3 -2 41 -6 85 -10 44 -4 96 -8 115 -10 68 -7 255 -20 440 -31 251 -16
1169 -8 1321 11 14 1 72 6 130 10 57 4 111 9 121 10 9 2 54 6 100 10 45 3 90
8 98 10 8 2 46 7 85 10 38 3 81 7 95 10 25 4 239 34 295 41 17 2 55 8 85 14
30 5 71 12 90 14 51 7 289 52 380 72 14 3 39 8 55 10 95 17 529 124 705 174
236 67 547 164 600 187 8 3 20 7 25 9 6 1 69 23 140 49 72 26 144 51 160 57
17 6 34 15 39 19 6 5 16 9 24 9 8 0 28 6 45 14 18 8 106 44 197 81 91 38 198
83 238 102 41 18 75 33 77 33 6 0 221 102 370 176 246 122 417 214 710 384 99
57 498 307 530 332 6 5 89 63 185 130 264 183 632 465 798 611 27 23 70 61 97
84 291 244 706 650 1005 983 41 46 80 88 85 94 6 6 35 40 65 76 30 36 57 67
60 70 3 3 25 30 50 60 25 30 47 57 50 60 3 3 24 27 45 55 22 27 45 55 50 61 6
6 21 26 35 44 14 18 30 38 35 44 6 6 23 29 39 51 17 22 33 42 36 45 5 5 107
140 148 199 9 13 26 35 38 50 59 75 404 585 404 597 0 3 20 35 44 72 24 37 67
108 96 157 29 50 61 102 71 117 11 15 19 29 19 31 0 3 26 51 59 108 103 184
321 609 391 764 12 28 34 75 47 105 14 30 34 75 45 100 11 25 25 58 32 75 70
161 152 368 207 519 22 61 44 120 49 131 21 47 143 425 194 600 96 331 217
832 251 1045 4 19 10 53 15 75 8 35 16 85 25 150 2 11 6 36 9 55 16 90 26 149
31 200 4 30 8 57 10 60 1 3 6 36 10 75 4 38 8 72 10 75 1 3 6 41 10 84 4 43 8
86 10 95 1 9 6 52 9 96 4 44 9 91 11 105 2 14 7 66 10 115 4 50 8 106 10 125
20 251 27 1050 11 1330 -12 206 -12 217 -20 300 -3 41 -9 104 -11 140 -8 102
-24 257 -30 280 -2 8 -7 49 -10 90 -4 41 -8 77 -10 80 -2 3 -6 34 -10 70 -3
36 -8 72 -10 80 -2 8 -7 35 -10 60 -6 42 -10 67 -20 133 -3 15 -7 42 -10 60
-22 134 -100 529 -120 607 -8 31 -37 156 -40 172 -5 22 -33 130 -51 193 -7 28
-20 75 -28 105 -42 168 -215 713 -259 820 -5 14 -11 30 -13 35 -1 6 -20 57
-42 115 -443 1162 -1042 2195 -1826 3145 -120 145 -128 155 -311 360 -248 278
-669 694 -925 915 -14 12 -36 31 -50 43 -34 30 -190 161 -271 227 -101 84
-221 177 -359 280 -69 51 -142 106 -162 121 -20 16 -41 29 -46 29 -5 0 -15 6
-21 14 -6 7 -64 49 -129 92 -64 44 -121 83 -127 87 -20 16 -252 165 -340 218
-49 30 -92 56 -95 59 -5 5 -24 16 -99 57 -25 14 -50 29 -56 33 -10 8 -32 20
-225 128 -126 70 -513 267 -655 332 -543 251 -1085 452 -1640 610 -188 53
-591 154 -660 165 -22 4 -53 11 -70 16 -16 4 -44 11 -61 14 -17 2 -102 18
-189 35 -87 17 -217 39 -289 51 -72 11 -142 22 -156 24 -35 6 -222 30 -315 40
-27 3 -66 8 -85 11 -34 4 -87 9 -200 19 -103 9 -313 25 -417 31 -87 6 -980 14
-985 9z"/>
</g>
</svg>
